<?xml version="1.0" standalone="no"?>
<!DOCTYPE svg PUBLIC "-//W3C//DTD SVG 20010904//EN"
 "http://www.w3.org/TR/2001/REC-SVG-20010904/DTD/svg10.dtd">
<svg version="1.0" xmlns="http://www.w3.org/2000/svg"
 width="16.000000pt" height="14.000000pt" viewBox="0 0 16.000000 14.000000"
 preserveAspectRatio="xMidYMid meet">

<g transform="translate(0.000000,14.000000) scale(0.100000,-0.100000)"
fill="#000000" stroke="none">
<path d="M83 110 c-4 -16 -11 -19 -27 -14 -11 4 -27 11 -34 17 -11 9 -13 4 -8
-28 4 -22 11 -41 16 -43 16 -6 11 -20 -7 -25 -10 -3 -1 -5 20 -6 30 -1 45 5
68 28 16 16 29 36 29 44 0 9 2 22 5 29 4 10 -4 14 -26 16 -24 2 -32 -2 -36
-18z"/>
</g>
</svg>
